<!-- icon666.com - MILLIONS vector ICONS FREE --><svg enable-background="new 0 0 64 64" viewBox="0 0 64 64" xmlns="http://www.w3.org/2000/svg"><g id="Layer_22"><path d="m32 2.5c-16.27 0-29.5 13.23-29.5 29.5s13.23 29.5 29.5 29.5 29.5-13.23 29.5-29.5-13.23-29.5-29.5-29.5zm0 57c-15.16 0-27.5-12.34-27.5-27.5s12.34-27.5 27.5-27.5 27.5 12.34 27.5 27.5-12.34 27.5-27.5 27.5z" fill="#96cf96" style="fill: rgb(255, 255, 255);"></path><path d="m32 27.92c-2.25 0-4.08 1.83-4.08 4.08s1.83 4.08 4.08 4.08 4.08-1.83 4.08-4.08-1.83-4.08-4.08-4.08zm0 6.16c-1.15 0-2.08-.93-2.08-2.08s.93-2.08 2.08-2.08 2.08.93 2.08 2.08-.93 2.08-2.08 2.08z" fill="#d72027" style="fill: rgb(255, 255, 255);"></path></g></svg>